<?xml version="1.0" encoding="utf-8" ?>
<svg xmlns="http://www.w3.org/2000/svg" xmlns:xlink="http://www.w3.org/1999/xlink" width="512" height="512">
	<path d="M124.707 51.1705L134.245 49.6492C154.11 45.9401 178.435 53.5287 195.387 63.192C198.695 65.0776 200.551 64.4178 200.539 68.625L200.497 183.735C200.505 189.406 200.237 195.207 201.019 200.832C199.837 200.187 198.631 199.923 197.459 199.345C191.813 196.565 186.393 192.887 181.109 189.47L142.921 164.478C137.013 160.717 130.328 157.01 128.041 149.922C122.669 133.272 139.092 119.965 153.688 129.258C155.591 130.469 157.288 132.093 159.301 133.121C162.864 134.941 168.364 133.473 169.958 129.625C174.55 118.541 164.042 107.851 154.181 104.242C119.023 91.3749 90.4945 131.017 106.557 164.176C112.59 176.631 124.659 183.195 135.75 190.505L205.088 235.964C210.505 239.555 216.731 243.699 223.349 240.184C230.834 236.207 230.152 227.722 230.168 220.472L230.232 104.525C230.234 100.402 229.878 95.9462 230.583 91.8937C238.319 95.3037 247.527 103.893 255.711 108.45C263.854 104.844 272.382 95.9113 278.454 93.6084C279.085 93.3688 279.571 93.1086 280.129 92.7255L280.43 223.981C280.446 227.058 280.225 231.282 281.348 234.16C283.896 240.684 291.151 243.592 297.503 240.895C302.96 238.578 307.916 234.574 312.784 231.222L374.568 189.922C381.252 185.443 388.73 181.37 394.763 176.033C429.266 145.516 395.47 87.0632 354.685 104.964C348.965 107.474 343.858 111.188 341.552 117.201C339.814 121.734 337.515 132.178 344.117 134.062C348.618 135.347 354.466 130.376 358.212 128.427C373.137 120.663 388.591 133.812 382.652 150.016C380.105 156.966 373.527 160.335 367.621 164.048L321.875 194.093C318.124 196.454 313.958 198.932 310.328 201.301L310.244 84.0171C310.245 78.584 310.71 72.6683 309.723 67.3226L309.66 66.9935C324.279 56.8151 347.86 49.9509 365.165 48.8947C373.812 48.2222 383.308 49.6306 391.609 51.9904C448.133 68.0577 477.632 128.673 452.299 182.631C439.575 209.732 422.323 218.837 399.293 233.818L350.404 265.626C339.095 273.408 323.037 281.092 342.02 294.237L389.662 325.755C394.093 328.736 399.204 331.277 403.262 334.712C423.551 351.887 407.12 386.307 383.198 379.795C377.449 378.229 372.299 374.299 367.423 370.994L301.837 327.62C299.159 325.762 296.268 323.406 293.098 322.5C287.607 320.932 281.799 324.98 280.527 330.357L280.44 330.75C279.787 333.578 280.278 336.695 280.329 339.588L280.378 430.875C280.379 434.157 280.653 437.727 280.157 440.959C275.48 471.391 235.599 468.544 231.734 442.745L231.663 442.25C231.229 439.357 231.531 436.24 231.54 433.311L231.588 341.28C231.6 338.804 231.856 336.01 231.401 333.578C230.432 328.406 224.41 321.822 218.602 323.236C216.547 323.737 214.552 324.945 212.75 326.014L149.25 367.027C142.521 371.516 135.298 378.243 127.254 379.978C101.33 385.569 88.9704 350.624 109.773 334.147C114.776 330.184 120.591 326.889 125.896 323.302L170.109 294.409C184.169 285.607 179.651 279.168 168.485 271.952L99.006 226.9C93.0809 222.956 87.1522 218.934 81.8829 214.125C34.0103 170.435 41.6124 91.0818 98.1083 60.7713C106.464 56.2885 115.501 53.327 124.707 51.1705Z"/>
	<path d="M313.286 433.033L312.431 432.869C312.046 432.512 311.783 432.17 311.761 431.623L311.558 365.189C317.271 367.2 322.462 371.54 327.387 375.013L346.813 388.468C352.137 392.254 357.361 396.337 363.023 399.608C414.728 429.486 461.353 363.085 424.201 320.658C412.858 307.704 386.019 293.847 371.037 282.182L392.529 268.346C396.977 265.56 401.447 262.702 406.239 260.543C411.294 262.113 416.287 265.982 420.845 268.709L434.026 276.466C444.997 283.228 456.298 290.894 465.052 300.419C488.141 325.542 494.262 362.302 482.044 394.01C461.599 447.068 401.314 474.782 347.866 452.253C335.78 447.159 324.36 439.999 313.286 433.033Z"/>
	<path d="M200.486 431.736L179.848 444.352C132.618 472.658 67.2733 460.695 38.3776 412.192C17.4426 377.052 18.7346 332.151 46.9668 301.494C62.7242 284.383 85.0924 273.045 104.819 261.283C107.205 263.027 109.977 264.472 112.513 265.997L128.454 275.693C132.462 278.163 136.522 280.511 140.149 283.537C135.417 287.309 130.335 290.49 125.25 293.752L108.076 304.896C99.5014 310.545 90.6726 316.6 84.4346 324.899C53.1545 366.513 97.3676 425.529 145.281 400.966C152.284 397.376 158.687 392.582 165.121 388.087L194.368 368.02C195.769 367.071 197.206 365.938 198.72 365.196L200.393 364.271L200.486 431.736Z"/>
</svg>
