<?xml version="1.0" encoding="utf-8" ?>
<svg xmlns="http://www.w3.org/2000/svg" xmlns:xlink="http://www.w3.org/1999/xlink" width="512" height="511">
	<path fill="#005fba" d="M354.245 28.939C386.736 33.2077 415.651 47.9035 435.431 74.3458C478.349 131.719 456.888 219.57 392.382 250.167C387.275 252.589 381.856 254.972 376.251 255.884C375.761 253.046 375.929 250.076 375.935 247.209L375.96 233.918L299.911 234.004C285.948 234.003 274.864 232.765 269.623 216.625C268.379 212.793 268.996 207.181 268.99 203.135L269 162.301C268.998 160.332 269.102 158.304 268.825 156.353L268.755 155.875C266.744 141.306 247.502 140.303 243.127 153.986C242.186 156.932 242.455 160.191 242.453 163.241L242.468 202.255C242.482 206.196 243.015 211.007 242.146 214.828C240.179 223.474 232.874 231.703 224.032 233.568C220.319 234.351 216.368 234.054 212.592 234.037L136.018 234.093L135.719 255.435C131.742 254.844 127.976 253.48 124.25 252.017C74.742 232.58 47.4489 176.987 55.7865 125.63C63.5914 77.5539 101.224 38.4824 149.136 30.0964L165.912 28.4014L178.807 28.4377C198.843 28.7626 229.447 36.6971 242.709 51.3551C231.955 54.7146 222.705 61.5896 213.338 67.667L169.271 95.2381C163.888 98.4261 158.313 102.297 152.54 104.683L152.831 91.4207C152.848 78.4006 150.491 79.2514 140.297 84.8736C122.024 94.9511 107.41 113.217 104.642 134.302C103.087 146.148 104.471 170.908 115.076 178.321C116.985 178.193 119.128 176.828 120.764 175.905L235.147 106.516C256.399 93.0038 260.589 96.1439 282.14 109.831L377.049 167.172C383.079 170.721 388.765 174.981 394.861 178.355C408.957 171.974 409.527 140.501 406.336 127.938C401.198 107.707 385.632 89.5342 365.865 82.2601C364.606 81.7968 363.092 81.2593 361.754 81.6404L361.5 81.7206C357.365 82.9925 358.485 88.6389 358.489 91.9873L358.518 104.298C357.174 103.169 354.808 102.416 353.219 101.507L286.566 59.9977C280.899 56.4778 274.892 53.5061 269.34 49.8181C271.839 48.4769 274.152 46.8243 276.574 45.3525C299.488 31.4308 327.768 26.4104 354.245 28.939Z"/>
	<path fill="#005fba" d="M471.467 381.051C474.851 400.229 474.862 420.131 470.193 439.118C469.362 442.499 468.495 446.715 466.753 449.721L423.49 449.684L424.064 402.054C424.047 396.538 425.403 388.438 420.093 384.892C415.781 382.013 413.29 386.15 408.843 389.107L396.122 397.081L278.801 467.357C260.601 478.731 253.178 479.228 234.211 467.539L102.611 389.27L94.863 383.724C85.1971 386.529 87.6837 400.177 87.6851 407.936L87.7718 427.548C87.8302 429.778 88.2965 431.952 88.392 434.152L88.5178 449.59L45.3148 449.592C42.9647 444.424 41.5731 439.011 40.4743 433.462C28.1439 371.193 64.068 305.749 122.969 281.838C134.387 277.203 139.625 276.585 151.494 276.574L220.425 276.563L226.875 276.487C219.592 297.752 196.26 307.17 178.306 317.395L146.171 336.25C142.621 338.319 138.41 339.959 135.13 342.358C134.303 347.64 135.817 356.379 140.302 359.44C146.318 363.546 152.798 366.911 159.08 370.577L202.712 396.375C206.024 398.408 209.349 400.616 212.959 402.084C223.019 406.174 233.61 398.414 236.374 388.672C237.017 386.403 236.747 383.758 236.749 381.413L236.84 318.305C237.94 296.406 274.914 292.66 275.046 320.794L275.021 379.595C275.02 382.529 274.931 385.463 275.448 388.365C277.334 398.941 289.153 406.619 299.194 401.829C303.766 399.647 308.072 396.62 312.457 394.062L362.699 364.583C374.267 357.996 376.541 357.901 377.178 343.169C374.182 340.324 370.131 338.546 366.506 336.616L308.714 303.55C300.09 298.666 289.481 289.908 286.853 279.742L285.806 276.302C288.79 276.657 291.884 276.557 294.886 276.56L362.848 276.581C372.789 276.598 378.785 277.81 388.017 281.461C430.456 298.245 462.12 336.244 471.467 381.051Z"/>
</svg>
